<mxfile host="app.diagrams.net" modified="2024-04-01T18:41:47.936Z" agent="Mozilla/5.0 (Macintosh; Intel Mac OS X 10.15; rv:124.0) Gecko/20100101 Firefox/124.0" etag="r4SmhDZ0lI4oKeR9wJ3r" version="24.1.0" type="device">
  <diagram name="Page-1" id="OcUoF7M6_SgBuUH9frc7">
    <mxGraphModel dx="951" dy="529" grid="1" gridSize="10" guides="1" tooltips="1" connect="1" arrows="1" fold="1" page="1" pageScale="1" pageWidth="850" pageHeight="1100" math="0" shadow="0">
      <root>
        <mxCell id="0" />
        <mxCell id="1" parent="0" />
        <mxCell id="jVhg5DzTZQLce4fsK7G8-3" value="&lt;font color=&quot;#941100&quot; face=&quot;Times New Roman&quot;&gt;&lt;b&gt;&lt;i&gt;&lt;u&gt;&lt;font style=&quot;font-size: 27px;&quot;&gt;Deployment Diagram &lt;/font&gt;&lt;/u&gt;&lt;/i&gt;&lt;/b&gt;&lt;/font&gt;" style="rounded=0;whiteSpace=wrap;html=1;fillColor=#f5f5f5;gradientColor=#b3b3b3;strokeColor=#666666;" vertex="1" parent="1">
          <mxGeometry x="230" y="10" width="380" height="50" as="geometry" />
        </mxCell>
        <mxCell id="jVhg5DzTZQLce4fsK7G8-8" value="" style="verticalAlign=top;align=left;spacingTop=8;spacingLeft=2;spacingRight=12;shape=cube;size=10;direction=south;fontStyle=4;html=1;whiteSpace=wrap;" vertex="1" parent="1">
          <mxGeometry x="330" y="180" width="240" height="120" as="geometry" />
        </mxCell>
        <mxCell id="jVhg5DzTZQLce4fsK7G8-11" value="Medical Clinic System." style="text;align=center;fontStyle=1;verticalAlign=middle;spacingLeft=3;spacingRight=3;strokeColor=none;rotatable=0;points=[[0,0.5],[1,0.5]];portConstraint=eastwest;html=1;" vertex="1" parent="1">
          <mxGeometry x="362.5" y="120" width="155" height="26" as="geometry" />
        </mxCell>
        <mxCell id="jVhg5DzTZQLce4fsK7G8-13" value="Medical Clinic System Software" style="text;html=1;align=center;verticalAlign=middle;whiteSpace=wrap;rounded=0;" vertex="1" parent="1">
          <mxGeometry x="340" y="225" width="200" height="30" as="geometry" />
        </mxCell>
        <mxCell id="jVhg5DzTZQLce4fsK7G8-14" value="" style="verticalAlign=top;align=left;spacingTop=8;spacingLeft=2;spacingRight=12;shape=cube;size=10;direction=south;fontStyle=4;html=1;whiteSpace=wrap;" vertex="1" parent="1">
          <mxGeometry x="140" y="370" width="230" height="100" as="geometry" />
        </mxCell>
        <mxCell id="jVhg5DzTZQLce4fsK7G8-15" value="Appointment List" style="text;html=1;align=center;verticalAlign=middle;whiteSpace=wrap;rounded=0;" vertex="1" parent="1">
          <mxGeometry x="150" y="405" width="200" height="30" as="geometry" />
        </mxCell>
        <mxCell id="jVhg5DzTZQLce4fsK7G8-16" value="" style="verticalAlign=top;align=left;spacingTop=8;spacingLeft=2;spacingRight=12;shape=cube;size=10;direction=south;fontStyle=4;html=1;whiteSpace=wrap;" vertex="1" parent="1">
          <mxGeometry x="550" y="370" width="230" height="100" as="geometry" />
        </mxCell>
        <mxCell id="jVhg5DzTZQLce4fsK7G8-17" value="Appointment" style="text;html=1;align=center;verticalAlign=middle;whiteSpace=wrap;rounded=0;" vertex="1" parent="1">
          <mxGeometry x="560" y="405" width="200" height="30" as="geometry" />
        </mxCell>
        <mxCell id="jVhg5DzTZQLce4fsK7G8-18" value="" style="verticalAlign=top;align=left;spacingTop=8;spacingLeft=2;spacingRight=12;shape=cube;size=10;direction=south;fontStyle=4;html=1;whiteSpace=wrap;" vertex="1" parent="1">
          <mxGeometry x="140" y="540" width="230" height="100" as="geometry" />
        </mxCell>
        <mxCell id="jVhg5DzTZQLce4fsK7G8-19" value="Patient List" style="text;html=1;align=center;verticalAlign=middle;whiteSpace=wrap;rounded=0;" vertex="1" parent="1">
          <mxGeometry x="150" y="575" width="200" height="30" as="geometry" />
        </mxCell>
        <mxCell id="jVhg5DzTZQLce4fsK7G8-20" value="" style="verticalAlign=top;align=left;spacingTop=8;spacingLeft=2;spacingRight=12;shape=cube;size=10;direction=south;fontStyle=4;html=1;whiteSpace=wrap;" vertex="1" parent="1">
          <mxGeometry x="555" y="540" width="230" height="100" as="geometry" />
        </mxCell>
        <mxCell id="jVhg5DzTZQLce4fsK7G8-21" value="Payments" style="text;html=1;align=center;verticalAlign=middle;whiteSpace=wrap;rounded=0;" vertex="1" parent="1">
          <mxGeometry x="570" y="575" width="200" height="30" as="geometry" />
        </mxCell>
        <mxCell id="jVhg5DzTZQLce4fsK7G8-22" value="" style="verticalAlign=top;align=left;spacingTop=8;spacingLeft=2;spacingRight=12;shape=cube;size=10;direction=south;fontStyle=4;html=1;whiteSpace=wrap;" vertex="1" parent="1">
          <mxGeometry x="330" y="740" width="230" height="100" as="geometry" />
        </mxCell>
        <mxCell id="jVhg5DzTZQLce4fsK7G8-23" value="Treatment" style="text;html=1;align=center;verticalAlign=middle;whiteSpace=wrap;rounded=0;" vertex="1" parent="1">
          <mxGeometry x="340" y="775" width="200" height="30" as="geometry" />
        </mxCell>
        <mxCell id="jVhg5DzTZQLce4fsK7G8-24" value="" style="endArrow=none;html=1;rounded=0;exitX=0;exitY=0;exitDx=0;exitDy=110;exitPerimeter=0;entryX=0;entryY=0;entryDx=65;entryDy=240;entryPerimeter=0;" edge="1" parent="1" source="jVhg5DzTZQLce4fsK7G8-14" target="jVhg5DzTZQLce4fsK7G8-8">
          <mxGeometry width="50" height="50" relative="1" as="geometry">
            <mxPoint x="230" y="320" as="sourcePoint" />
            <mxPoint x="260" y="250" as="targetPoint" />
            <Array as="points">
              <mxPoint x="260" y="245" />
            </Array>
          </mxGeometry>
        </mxCell>
        <mxCell id="jVhg5DzTZQLce4fsK7G8-25" value="Show" style="edgeLabel;html=1;align=center;verticalAlign=middle;resizable=0;points=[];" vertex="1" connectable="0" parent="jVhg5DzTZQLce4fsK7G8-24">
          <mxGeometry x="-0.2205" y="-1" relative="1" as="geometry">
            <mxPoint as="offset" />
          </mxGeometry>
        </mxCell>
        <mxCell id="jVhg5DzTZQLce4fsK7G8-26" value="" style="endArrow=none;html=1;rounded=0;exitX=0;exitY=0;exitDx=45;exitDy=0;exitPerimeter=0;entryX=0;entryY=0;entryDx=120;entryDy=125;entryPerimeter=0;" edge="1" parent="1" source="jVhg5DzTZQLce4fsK7G8-18" target="jVhg5DzTZQLce4fsK7G8-8">
          <mxGeometry width="50" height="50" relative="1" as="geometry">
            <mxPoint x="395" y="530" as="sourcePoint" />
            <mxPoint x="465" y="405" as="targetPoint" />
            <Array as="points">
              <mxPoint x="445" y="585" />
            </Array>
          </mxGeometry>
        </mxCell>
        <mxCell id="jVhg5DzTZQLce4fsK7G8-27" value="Show" style="edgeLabel;html=1;align=center;verticalAlign=middle;resizable=0;points=[];" vertex="1" connectable="0" parent="jVhg5DzTZQLce4fsK7G8-26">
          <mxGeometry x="-0.2205" y="-1" relative="1" as="geometry">
            <mxPoint as="offset" />
          </mxGeometry>
        </mxCell>
        <mxCell id="jVhg5DzTZQLce4fsK7G8-28" value="" style="endArrow=none;html=1;rounded=0;entryX=0;entryY=0;entryDx=45;entryDy=0;entryPerimeter=0;exitX=0;exitY=0;exitDx=45;exitDy=0;exitPerimeter=0;" edge="1" parent="1" source="jVhg5DzTZQLce4fsK7G8-20" target="jVhg5DzTZQLce4fsK7G8-16">
          <mxGeometry width="50" height="50" relative="1" as="geometry">
            <mxPoint x="670" y="540" as="sourcePoint" />
            <mxPoint x="550" y="600" as="targetPoint" />
            <Array as="points">
              <mxPoint x="840" y="585" />
              <mxPoint x="840" y="415" />
            </Array>
          </mxGeometry>
        </mxCell>
        <mxCell id="jVhg5DzTZQLce4fsK7G8-29" value="Lead to" style="edgeLabel;html=1;align=center;verticalAlign=middle;resizable=0;points=[];" vertex="1" connectable="0" parent="jVhg5DzTZQLce4fsK7G8-28">
          <mxGeometry x="-0.2205" y="-1" relative="1" as="geometry">
            <mxPoint as="offset" />
          </mxGeometry>
        </mxCell>
        <mxCell id="jVhg5DzTZQLce4fsK7G8-30" value="" style="endArrow=none;html=1;rounded=0;entryX=0;entryY=0;entryDx=100;entryDy=120;entryPerimeter=0;exitX=0;exitY=0;exitDx=45;exitDy=0;exitPerimeter=0;" edge="1" parent="1" source="jVhg5DzTZQLce4fsK7G8-22" target="jVhg5DzTZQLce4fsK7G8-20">
          <mxGeometry width="50" height="50" relative="1" as="geometry">
            <mxPoint x="590" y="800" as="sourcePoint" />
            <mxPoint x="630" y="670" as="targetPoint" />
            <Array as="points">
              <mxPoint x="665" y="785" />
            </Array>
          </mxGeometry>
        </mxCell>
        <mxCell id="jVhg5DzTZQLce4fsK7G8-31" value="Lead to" style="edgeLabel;html=1;align=center;verticalAlign=middle;resizable=0;points=[];" vertex="1" connectable="0" parent="jVhg5DzTZQLce4fsK7G8-30">
          <mxGeometry x="-0.2205" y="-1" relative="1" as="geometry">
            <mxPoint as="offset" />
          </mxGeometry>
        </mxCell>
        <mxCell id="jVhg5DzTZQLce4fsK7G8-32" value="Depend on" style="endArrow=open;endSize=12;dashed=1;html=1;rounded=0;exitX=0;exitY=0;exitDx=0;exitDy=110;exitPerimeter=0;entryX=1.02;entryY=0.485;entryDx=0;entryDy=0;entryPerimeter=0;" edge="1" parent="1" source="jVhg5DzTZQLce4fsK7G8-18" target="jVhg5DzTZQLce4fsK7G8-14">
          <mxGeometry width="160" relative="1" as="geometry">
            <mxPoint x="380" y="400" as="sourcePoint" />
            <mxPoint x="270" y="490" as="targetPoint" />
          </mxGeometry>
        </mxCell>
        <mxCell id="jVhg5DzTZQLce4fsK7G8-33" value="Depend on" style="endArrow=open;endSize=12;dashed=1;html=1;rounded=0;exitX=0.543;exitY=-0.016;exitDx=0;exitDy=0;exitPerimeter=0;entryX=0;entryY=0;entryDx=55;entryDy=230;entryPerimeter=0;" edge="1" parent="1" source="jVhg5DzTZQLce4fsK7G8-14" target="jVhg5DzTZQLce4fsK7G8-16">
          <mxGeometry width="160" relative="1" as="geometry">
            <mxPoint x="270" y="550" as="sourcePoint" />
            <mxPoint x="268" y="482" as="targetPoint" />
          </mxGeometry>
        </mxCell>
      </root>
    </mxGraphModel>
  </diagram>
</mxfile>
